HIERARCHY
ROOT Hips
{
	OFFSET 0.000000 71.427986 0.000000
	CHANNELS 6 Xposition Yposition Zposition Xrotation Yrotation Zrotation
	JOINT Pelvis
	{
		OFFSET 0.000000 0.000000 0.000000
		CHANNELS 3 Xrotation Yrotation Zrotation
		JOINT LeftUpLeg
		{
			OFFSET 6.797100 -2.508499 -1.318700
			CHANNELS 3 Xrotation Yrotation Zrotation
			JOINT LeftLeg
			{
				OFFSET 0.069008 -29.241863 0.690200
				CHANNELS 3 Xrotation Yrotation Zrotation
				JOINT LeftFoot
				{
					OFFSET -0.069008 -29.568123 -0.266800
					CHANNELS 3 Xrotation Yrotation Zrotation
					JOINT LeftToeBase
					{
						OFFSET 3.145500 -8.631000 16.059900
						CHANNELS 3 Xrotation Yrotation Zrotation
						End Site
						{
							OFFSET 0.000000 18.501587 0.000000
						}
					}
				}
			}
			JOINT Left_ShortSleeve
			{
				OFFSET 0.265923 -10.480953 1.153800
				CHANNELS 3 Xrotation Yrotation Zrotation
				End Site
				{
					OFFSET 1.725763 19.823879 0.000000
				}
			}
		}
		JOINT RightUpLeg
		{
			OFFSET -6.797100 -2.508499 -1.318700
			CHANNELS 3 Xrotation Yrotation Zrotation
			JOINT RightLeg
			{
				OFFSET -0.082453 -29.241932 0.688000
				CHANNELS 3 Xrotation Yrotation Zrotation
				JOINT RightFoot
				{
					OFFSET 0.082453 -29.568058 -0.264600
					CHANNELS 3 Xrotation Yrotation Zrotation
					JOINT RightToeBase
					{
						OFFSET -3.115300 -8.682800 16.113400
						CHANNELS 3 Xrotation Yrotation Zrotation
						End Site
						{
							OFFSET 0.000000 18.567114 0.000000
						}
					}
				}
			}
			JOINT Right_ShortSleeve
			{
				OFFSET -0.265923 -10.480953 1.153800
				CHANNELS 3 Xrotation Yrotation Zrotation
				End Site
				{
					OFFSET -1.725766 19.823910 0.000000
				}
			}
		}
	}
	JOINT Spine
	{
		OFFSET 0.000000 13.368103 0.470500
		CHANNELS 3 Xrotation Yrotation Zrotation
		JOINT Spine1
		{
			OFFSET 0.147000 13.837402 0.538800
			CHANNELS 3 Xrotation Yrotation Zrotation
			JOINT Spine2
			{
				OFFSET 0.168000 16.242897 -1.435500
				CHANNELS 3 Xrotation Yrotation Zrotation
				JOINT Neck
				{
					OFFSET 0.217200 18.631500 -1.679100
					CHANNELS 3 Xrotation Yrotation Zrotation
					JOINT Head
					{
						OFFSET 0.000000 6.599396 1.385900
						CHANNELS 3 Xrotation Yrotation Zrotation
						JOINT Hat
						{
							OFFSET -0.532200 27.220596 -10.096100
							CHANNELS 3 Xrotation Yrotation Zrotation
							End Site
							{
								OFFSET 0.000000 22.029861 0.000000
							}
						}
						JOINT HairD
						{
							OFFSET -10.777400 17.437393 -1.325900
							CHANNELS 3 Xrotation Yrotation Zrotation
							JOINT HairD1
							{
								OFFSET -3.290299 -11.051193 1.062200
								CHANNELS 3 Xrotation Yrotation Zrotation
								End Site
								{
									OFFSET 0.000000 11.579437 0.000000
								}
							}
						}
						JOINT HairB
						{
							OFFSET -10.777400 17.437393 1.467900
							CHANNELS 3 Xrotation Yrotation Zrotation
							JOINT HairB1
							{
								OFFSET -1.561200 -12.956299 3.590200
								CHANNELS 3 Xrotation Yrotation Zrotation
								End Site
								{
									OFFSET 0.000000 13.534866 0.000000
								}
							}
						}
						JOINT HairA
						{
							OFFSET 9.713100 17.437393 1.467900
							CHANNELS 3 Xrotation Yrotation Zrotation
							JOINT HairA1
							{
								OFFSET 1.561200 -12.956299 3.590200
								CHANNELS 3 Xrotation Yrotation Zrotation
								End Site
								{
									OFFSET 0.000000 13.534866 0.000000
								}
							}
						}
						JOINT HairC
						{
							OFFSET 9.713100 17.437393 -1.325900
							CHANNELS 3 Xrotation Yrotation Zrotation
							JOINT HairC1
							{
								OFFSET 3.290300 -11.051193 1.062200
								CHANNELS 3 Xrotation Yrotation Zrotation
								End Site
								{
									OFFSET 0.000000 11.579437 0.000000
								}
							}
						}
					}
				}
				JOINT LeftShoulder
				{
					OFFSET 5.101800 15.108002 -2.763700
					CHANNELS 3 Xrotation Yrotation Zrotation
					JOINT LeftArm
					{
						OFFSET 9.825497 2.506317 -1.597400
						CHANNELS 3 Xrotation Yrotation Zrotation
						JOINT LeftForeArm
						{
							OFFSET 21.966244 0.000000 0.000000
							CHANNELS 3 Xrotation Yrotation Zrotation
							JOINT LeftHand
							{
								OFFSET 33.879036 0.000000 0.000000
								CHANNELS 3 Xrotation Yrotation Zrotation
								JOINT LeftHandThumb1
								{
									OFFSET 6.715286 -2.359680 3.363841
									CHANNELS 3 Xrotation Yrotation Zrotation
									JOINT LeftHandThumb2
									{
										OFFSET 2.507072 -1.447464 1.447461
										CHANNELS 3 Xrotation Yrotation Zrotation
										JOINT LeftHandThumb3
										{
											OFFSET 2.898338 -1.673355 1.673357
											CHANNELS 3 Xrotation Yrotation Zrotation
											End Site
											{
												OFFSET -0.295959 3.727692 -0.131651
											}
										}
									}
								}
								JOINT LeftHandIndex1
								{
									OFFSET 14.190811 -0.254547 3.840278
									CHANNELS 3 Xrotation Yrotation Zrotation
									JOINT LeftHandIndex2
									{
										OFFSET 3.551727 0.000000 -0.000000
										CHANNELS 3 Xrotation Yrotation Zrotation
										JOINT LeftHandIndex3
										{
											OFFSET 2.894196 0.000000 0.000000
											CHANNELS 3 Xrotation Yrotation Zrotation
											End Site
											{
												OFFSET -1.000603 2.690872 0.366626
											}
										}
									}
								}
								JOINT LeftHandMiddle1
								{
									OFFSET 13.776489 0.000000 0.000000
									CHANNELS 3 Xrotation Yrotation Zrotation
									JOINT LeftHandMiddle2
									{
										OFFSET 3.438232 0.000000 0.000000
										CHANNELS 3 Xrotation Yrotation Zrotation
										JOINT LeftHandMiddle3
										{
											OFFSET 3.691551 0.000000 0.000000
											CHANNELS 3 Xrotation Yrotation Zrotation
											End Site
											{
												OFFSET -1.082298 3.499527 0.457670
											}
										}
									}
								}
								JOINT LeftHandRing1
								{
									OFFSET 13.966164 -0.268127 -3.067488
									CHANNELS 3 Xrotation Yrotation Zrotation
									JOINT LeftHandRing2
									{
										OFFSET 3.162567 0.000000 0.000000
										CHANNELS 3 Xrotation Yrotation Zrotation
										JOINT LeftHandRing3
										{
											OFFSET 3.324348 0.000000 0.000000
											CHANNELS 3 Xrotation Yrotation Zrotation
											End Site
											{
												OFFSET -0.861900 3.184998 0.405154
											}
										}
									}
								}
								JOINT LeftHandPinky1
								{
									OFFSET 13.131393 -0.168503 -5.746925
									CHANNELS 3 Xrotation Yrotation Zrotation
									JOINT LeftHandPinky2
									{
										OFFSET 2.849182 0.000000 0.000000
										CHANNELS 3 Xrotation Yrotation Zrotation
										JOINT LeftHandPinky3
										{
											OFFSET 2.805038 0.000000 0.000000
											CHANNELS 3 Xrotation Yrotation Zrotation
											End Site
											{
												OFFSET -0.882500 2.642609 0.325652
											}
										}
									}
								}
							}
							JOINT Left_Sleeve
							{
								OFFSET 6.592125 -0.646545 0.805568
								CHANNELS 3 Xrotation Yrotation Zrotation
								End Site
								{
									OFFSET -0.000179 20.275787 -0.000000
								}
							}
						}
					}
				}
				JOINT RightShoulder
				{
					OFFSET -5.731700 15.108002 -2.763700
					CHANNELS 3 Xrotation Yrotation Zrotation
					JOINT RightArm
					{
						OFFSET -9.825497 2.506317 -1.597400
						CHANNELS 3 Xrotation Yrotation Zrotation
						JOINT RightForeArm
						{
							OFFSET -21.966242 0.000000 0.000000
							CHANNELS 3 Xrotation Yrotation Zrotation
							JOINT RightHand
							{
								OFFSET -33.879032 0.000000 0.000000
								CHANNELS 3 Xrotation Yrotation Zrotation
								JOINT RightHandThumb1
								{
									OFFSET -6.715286 -2.359680 3.363841
									CHANNELS 3 Xrotation Yrotation Zrotation
									JOINT RightHandThumb2
									{
										OFFSET -2.507072 -1.447464 1.447461
										CHANNELS 3 Xrotation Yrotation Zrotation
										JOINT RightHandThumb3
										{
											OFFSET -2.898338 -1.673355 1.673357
											CHANNELS 3 Xrotation Yrotation Zrotation
											End Site
											{
												OFFSET 0.295959 3.727692 -0.131651
											}
										}
									}
								}
								JOINT RightHandIndex1
								{
									OFFSET -14.190811 -0.254547 3.840278
									CHANNELS 3 Xrotation Yrotation Zrotation
									JOINT RightHandIndex2
									{
										OFFSET -3.551727 0.000000 -0.000000
										CHANNELS 3 Xrotation Yrotation Zrotation
										JOINT RightHandIndex3
										{
											OFFSET -2.894196 0.000000 0.000000
											CHANNELS 3 Xrotation Yrotation Zrotation
											End Site
											{
												OFFSET 1.000603 2.690872 0.366626
											}
										}
									}
								}
								JOINT RightHandMiddle1
								{
									OFFSET -13.776489 0.000000 0.000000
									CHANNELS 3 Xrotation Yrotation Zrotation
									JOINT RightHandMiddle2
									{
										OFFSET -3.438232 0.000000 0.000000
										CHANNELS 3 Xrotation Yrotation Zrotation
										JOINT RightHandMiddle3
										{
											OFFSET -3.691551 0.000000 0.000000
											CHANNELS 3 Xrotation Yrotation Zrotation
											End Site
											{
												OFFSET 1.082298 3.499527 0.457670
											}
										}
									}
								}
								JOINT RightHandRing1
								{
									OFFSET -13.966164 -0.268127 -3.067488
									CHANNELS 3 Xrotation Yrotation Zrotation
									JOINT RightHandRing2
									{
										OFFSET -3.162567 0.000000 0.000000
										CHANNELS 3 Xrotation Yrotation Zrotation
										JOINT RightHandRing3
										{
											OFFSET -3.324348 0.000000 0.000000
											CHANNELS 3 Xrotation Yrotation Zrotation
											End Site
											{
												OFFSET 0.861900 3.184998 0.405154
											}
										}
									}
								}
								JOINT RightHandPinky1
								{
									OFFSET -13.131393 -0.168503 -5.746925
									CHANNELS 3 Xrotation Yrotation Zrotation
									JOINT RightHandPinky2
									{
										OFFSET -2.849182 0.000000 0.000000
										CHANNELS 3 Xrotation Yrotation Zrotation
										JOINT RightHandPinky3
										{
											OFFSET -2.805038 0.000000 0.000000
											CHANNELS 3 Xrotation Yrotation Zrotation
											End Site
											{
												OFFSET 0.882500 2.642609 0.325652
											}
										}
									}
								}
							}
							JOINT Right_Sleeve
							{
								OFFSET -6.592125 -0.646545 0.805568
								CHANNELS 3 Xrotation Yrotation Zrotation
								End Site
								{
									OFFSET 0.000179 20.275787 -0.000000
								}
							}
						}
					}
				}
				JOINT Bind_Right_JacketString
				{
					OFFSET -3.534800 11.969597 7.200700
					CHANNELS 3 Xrotation Yrotation Zrotation
					JOINT Bind_Right_JacketString1
					{
						OFFSET -0.319900 -6.102600 2.794100
						CHANNELS 3 Xrotation Yrotation Zrotation
						End Site
						{
							OFFSET 0.000000 6.719452 0.000000
						}
					}
				}
				JOINT Bind_Left_JacketString
				{
					OFFSET 2.904800 11.969597 7.200700
					CHANNELS 3 Xrotation Yrotation Zrotation
					JOINT Bind_Left_JacketString1
					{
						OFFSET 0.364800 -5.904503 3.186800
						CHANNELS 3 Xrotation Yrotation Zrotation
						End Site
						{
							OFFSET 0.000000 6.719513 0.000000
						}
					}
				}
				JOINT HairE
				{
					OFFSET 5.915200 17.612701 -11.592200
					CHANNELS 3 Xrotation Yrotation Zrotation
					JOINT HairE1
					{
						OFFSET 0.289200 -7.171898 -1.284500
						CHANNELS 3 Xrotation Yrotation Zrotation
						End Site
						{
							OFFSET 0.000000 7.291756 0.000000
						}
					}
				}
				JOINT HairF
				{
					OFFSET -0.864800 17.612701 -11.592200
					CHANNELS 3 Xrotation Yrotation Zrotation
					JOINT HairF1
					{
						OFFSET 0.000000 -14.087097 -2.127501
						CHANNELS 3 Xrotation Yrotation Zrotation
						End Site
						{
							OFFSET 0.000000 14.246841 0.000000
						}
					}
				}
				JOINT HairG
				{
					OFFSET -8.087700 17.612701 -11.592200
					CHANNELS 3 Xrotation Yrotation Zrotation
					JOINT HairG1
					{
						OFFSET -0.293600 -6.081398 -0.910100
						CHANNELS 3 Xrotation Yrotation Zrotation
						End Site
						{
							OFFSET 0.000000 6.156120 0.000000
						}
					}
				}
			}
		}
	}
	JOINT Pouch
	{
		OFFSET 0.000000 4.394501 10.847300
		CHANNELS 3 Xrotation Yrotation Zrotation
		End Site
		{
			OFFSET 0.000000 21.880577 0.000000
		}
	}
	JOINT Bag
	{
		OFFSET -13.229000 4.813004 -0.593300
		CHANNELS 3 Xrotation Yrotation Zrotation
		End Site
		{
			OFFSET 0.000000 21.880577 0.000000
		}
	}
	JOINT OccupyGuyFacialAnim_Joint
	{
		OFFSET 1.000000 -70.206398 -1.655000
		CHANNELS 3 Xrotation Yrotation Zrotation
		End Site
		{
			OFFSET 0.000000 21.880577 0.000000
		}
	}
}
MOTION
Frames: 4
Frame Time: 0.033333
-0.456720 62.753822 0.810711 12.114709 -23.685964 -1.053647 -0.000000 -0.000001 0.000000 -51.278834 -18.732412 16.855688 107.523160 -6.903103 -27.711551 3.543007 -8.039914 -6.298982 0.000000 -0.000000 -0.000000 0.000001 -0.000001 0.000001 -43.873041 14.759600 14.812223 57.702135 -1.467613 -2.261633 -28.010257 1.755556 3.718144 0.000000 -0.000000 -0.000000 -0.000001 0.000000 0.000000 19.785217 -4.324867 0.198266 0.236058 -4.968635 2.320817 0.344076 -4.862342 2.539752 -7.856993 19.466731 -4.096320 -15.090647 18.977039 6.601742 0.000001 0.000000 -0.000000 0.000001 0.000000 -0.000000 0.000001 0.000000 -0.000000 0.000001 0.000000 -0.000000 -0.000000 0.000000 -0.000000 0.000001 0.000000 -0.000000 -0.000000 0.000000 -0.000000 0.000001 0.000000 -0.000000 0.000001 0.000000 -0.000000 -8.081654 -18.741242 -12.043681 -15.529074 -9.403203 -19.045663 28.264465 -56.771341 23.013907 -8.590539 -4.118860 16.135422 -4.212032 -7.549087 8.222287 3.443338 19.991894 -1.669506 -0.000001 -0.000000 -0.000001 13.133481 -1.397710 11.962225 -0.167861 0.302432 -30.825207 0.000000 0.000000 0.000002 8.714019 0.215040 -0.188513 0.306034 0.657994 -29.575443 0.000003 0.000005 -0.000002 6.338938 3.521808 -15.081964 0.045966 0.320570 -29.767819 -0.000002 0.000001 -0.000004 -5.638030 7.874910 -13.120379 0.223145 0.275972 -46.206629 -0.000002 -0.000001 -0.000001 -0.000002 0.000002 0.000002 -7.062724 8.147875 1.230169 -86.547574 -34.994160 -24.818394 50.081174 119.399821 -36.075427 -6.543524 11.048296 -15.120229 -2.919962 9.678711 -10.591763 2.512990 -17.520576 2.613826 -0.000001 -0.000001 -0.000001 19.364749 11.465185 -14.233547 -0.118485 -0.323082 18.151556 -0.000003 0.000002 -0.000001 4.549102 1.892177 -5.357716 0.349040 -0.461241 26.950808 -0.000000 -0.000001 0.000002 -6.909387 -10.874155 4.713684 0.111812 -0.089596 26.249950 0.000003 0.000000 -0.000001 -19.523261 -20.355400 5.444226 0.223754 -0.085911 36.906046 -0.000000 0.000001 0.000004 -0.000000 0.000003 -0.000001 0.000000 -0.000002 -0.000000 0.000001 0.000003 -0.000002 0.000000 -0.000002 0.000001 0.000000 -0.000002 0.000001 0.000000 -0.000002 -0.000000 0.000001 0.000003 -0.000002 0.000000 -0.000002 0.000001 0.000000 -0.000002 0.000001 0.000000 -0.000002 -0.000000 0.000001 0.000003 -0.000002 -0.000000 -0.000001 0.000000 -0.000000 -0.000001 0.000000 -0.000000 -0.000001 0.000000 
-0.587510 62.321571 9.809633 14.731161 -24.714454 1.400083 -0.000000 0.000001 -0.000000 -61.573233 -23.223676 20.139113 107.698689 5.676608 -31.407617 -8.528201 -13.282146 -7.288350 0.000001 0.000000 0.000000 -0.000003 -0.000003 0.000000 -39.411267 11.808270 11.979558 64.412126 -4.801154 -4.653007 -35.144281 2.373581 1.319079 -0.000000 0.000000 0.000000 0.000001 0.000000 -0.000000 19.134935 -4.110174 -2.083512 0.123460 -4.204986 1.691642 0.262468 -4.097178 1.969822 -10.107544 18.287413 -2.131152 -13.328803 18.804417 5.890328 -0.000000 0.000000 0.000000 -0.000000 0.000000 0.000000 -0.000000 0.000000 -0.000000 -0.000000 0.000000 -0.000000 -0.000001 0.000000 -0.000000 -0.000000 0.000000 -0.000000 -0.000001 0.000000 -0.000000 -0.000000 0.000000 0.000000 -0.000000 0.000000 0.000000 -7.196742 -17.980406 -9.318420 -16.087715 -9.669400 -18.413109 27.016275 -57.039098 22.143062 -8.713559 -7.200974 14.854934 -4.212032 -7.549082 8.222290 3.664336 20.584991 -1.461194 0.000002 -0.000002 -0.000001 13.078937 -1.503901 9.599831 -0.165609 0.308760 -32.688483 -0.000000 0.000002 0.000002 8.704334 0.266435 -2.023941 0.310440 0.661288 -31.459097 0.000002 0.000002 0.000004 6.408048 3.602165 -16.934952 0.052465 0.330898 -31.737779 0.000000 -0.000002 -0.000003 -5.436667 8.206302 -15.255449 0.231560 0.280431 -48.789923 -0.000000 -0.000003 0.000001 0.000000 -0.000001 -0.000000 -7.366921 8.274425 4.845289 -86.904773 -28.593332 -24.122515 53.061554 120.062349 -37.134082 -6.098678 10.223128 -18.097018 -2.888243 9.531422 -10.550885 2.499068 -17.486160 2.622603 0.000000 0.000000 -0.000000 19.361580 11.468268 -14.216707 -0.118304 -0.323402 18.248558 -0.000004 0.000000 0.000002 4.536568 1.864509 -5.018537 0.349171 -0.461242 26.875107 -0.000001 -0.000003 -0.000001 -6.818691 -11.011853 5.197835 0.111898 -0.088993 26.105558 0.000000 -0.000001 0.000003 -19.510780 -20.374036 5.480668 0.223680 -0.086281 37.256773 -0.000000 -0.000001 0.000006 0.000002 0.000001 0.000004 0.000002 -0.000002 0.000003 0.000002 -0.000001 0.000001 0.000002 -0.000002 0.000002 0.000002 -0.000002 0.000002 0.000002 -0.000002 0.000003 0.000002 -0.000001 0.000001 0.000002 -0.000002 0.000002 0.000002 -0.000002 0.000002 0.000002 -0.000002 0.000003 0.000002 -0.000001 0.000001 -0.000000 0.000001 -0.000000 -0.000000 0.000001 -0.000000 -0.000000 0.000001 -0.000000 
-0.580011 62.783485 19.008375 17.420386 -25.140489 3.983986 0.000000 0.000001 0.000000 -66.534211 -13.065446 19.238529 88.179539 14.583084 -23.573247 -19.609210 -8.619442 -3.263959 0.000001 0.000000 -0.000000 0.000001 0.000001 -0.000000 -29.641122 12.615353 6.232952 59.968876 -2.737285 -6.575815 -38.342213 1.866544 2.346998 -0.000000 0.000000 0.000000 0.000000 0.000001 -0.000000 16.813708 -4.407973 -4.300347 -0.328718 -3.736041 1.346289 -0.153864 -3.660808 1.649019 -11.970289 17.124807 0.056288 -11.395263 18.425641 4.991459 0.000001 0.000000 -0.000000 0.000001 0.000000 -0.000000 0.000001 0.000000 -0.000000 0.000001 0.000000 -0.000000 -0.000000 0.000000 -0.000000 0.000001 0.000000 -0.000000 -0.000000 0.000000 -0.000000 0.000001 0.000000 -0.000000 0.000001 0.000000 -0.000000 -6.534591 -17.490953 -6.920138 -13.023137 -9.037522 -18.391099 31.884918 -55.607852 27.082223 -13.551081 -10.687521 14.144088 -4.212031 -7.549086 8.222288 3.934582 21.316477 -1.206769 -0.000000 -0.000000 0.000001 13.051557 -1.576729 7.158667 -0.163147 0.313466 -34.787205 0.000002 -0.000001 -0.000000 8.705839 0.282269 -4.406444 0.316036 0.668663 -33.655354 0.000002 -0.000000 -0.000001 6.451655 3.627958 -19.568393 0.060495 0.342934 -34.134256 -0.000000 0.000003 -0.000001 -5.319572 8.296444 -18.364827 0.241984 0.288094 -51.730709 -0.000001 -0.000004 0.000002 -0.000001 -0.000004 0.000001 -7.476770 8.585428 7.644805 -88.927130 -22.369343 -26.458618 50.828465 118.820225 -33.354484 -10.650075 9.614831 -18.452815 -2.893044 9.102954 -10.331653 2.498820 -17.490187 2.609844 -0.000001 0.000000 0.000001 19.347634 11.481894 -14.142500 -0.116976 -0.326037 19.050798 -0.000002 -0.000000 -0.000002 4.498834 1.778518 -3.970798 0.349199 -0.461263 26.868883 0.000001 0.000003 0.000003 -6.538981 -11.420886 6.655136 0.111972 -0.088562 26.003770 -0.000002 -0.000003 0.000001 -19.483328 -20.414894 5.560638 0.223484 -0.088016 38.757198 0.000001 0.000001 0.000002 -0.000000 -0.000002 0.000003 -0.000002 -0.000002 0.000003 0.000000 -0.000003 0.000002 -0.000002 -0.000002 0.000002 -0.000002 -0.000002 0.000002 -0.000002 -0.000002 0.000003 0.000000 -0.000003 0.000003 -0.000002 -0.000002 0.000002 -0.000002 -0.000002 0.000002 -0.000002 -0.000002 0.000003 0.000000 -0.000003 0.000003 0.000000 0.000001 0.000000 0.000000 0.000001 0.000000 0.000000 0.000001 0.000000 
-0.480335 63.771080 28.264294 19.426052 -23.186896 5.745425 -0.000001 0.000001 0.000000 -69.960350 -5.509218 17.275304 65.086901 11.995810 -12.631738 -19.660928 -5.818142 -1.771788 0.000001 -0.000000 0.000000 -0.000001 0.000001 0.000002 -18.289655 9.952892 -0.744073 50.858780 0.495782 -8.470545 -34.366298 1.642096 4.917390 -0.000002 0.000000 0.000000 0.000000 0.000001 -0.000000 13.787432 -4.809761 -6.231509 -0.760718 -3.554353 1.965899 -0.544406 -3.614510 2.208397 -12.873244 16.159749 2.398304 -9.475566 17.787653 3.989338 -0.000001 -0.000000 -0.000000 -0.000001 -0.000000 -0.000000 -0.000001 -0.000000 -0.000000 -0.000001 -0.000000 -0.000000 -0.000001 0.000000 -0.000000 -0.000001 -0.000000 -0.000000 -0.000001 0.000000 -0.000000 -0.000001 -0.000000 -0.000000 -0.000001 -0.000000 -0.000000 -6.517273 -18.610408 -7.337711 -8.138335 -8.659853 -17.400981 29.384181 -55.686638 26.089478 -14.339663 -14.359547 13.294664 -4.212032 -7.549079 8.222288 4.204736 22.054713 -0.952887 0.000003 -0.000000 0.000001 13.035460 -1.589406 4.762556 -0.161070 0.316244 -36.940706 -0.000001 -0.000000 0.000002 8.707867 0.297811 -7.008905 0.322927 0.679095 -35.993567 -0.000001 -0.000001 0.000004 6.460074 3.632681 -22.532326 0.069604 0.355637 -36.737976 -0.000001 0.000001 -0.000002 -5.320284 8.237425 -21.784876 0.253386 0.297314 -54.649583 -0.000001 -0.000001 -0.000001 -0.000001 -0.000002 0.000001 -7.373621 7.932776 6.641710 -91.414548 -18.625991 -29.949068 55.102558 119.438097 -35.406802 -12.633494 9.472257 -16.982649 -2.958490 8.525995 -9.977790 2.542932 -17.610454 2.550574 -0.000003 -0.000001 -0.000002 19.326094 11.502831 -14.028006 -0.114779 -0.330183 20.345884 0.000003 -0.000002 -0.000000 4.448562 1.656560 -2.499198 0.349068 -0.461235 26.939279 0.000001 -0.000001 0.000001 -6.131308 -11.978572 8.691214 0.111994 -0.088455 25.979369 0.000000 0.000002 0.000005 -19.462581 -20.445621 5.620841 0.223183 -0.090593 41.062086 -0.000000 0.000001 -0.000003 -0.000001 0.000001 0.000000 -0.000001 0.000003 -0.000002 -0.000000 0.000003 -0.000003 -0.000001 0.000003 -0.000001 -0.000001 0.000003 -0.000001 -0.000001 0.000003 -0.000002 -0.000000 0.000003 -0.000003 -0.000001 0.000003 -0.000001 -0.000001 0.000003 -0.000001 -0.000001 0.000003 -0.000002 -0.000000 0.000003 -0.000003 -0.000001 0.000001 0.000000 -0.000001 0.000001 0.000000 -0.000001 0.000001 0.000000 
